<svg width="34" height="33" viewBox="0 0 34 33" fill="none" xmlns="http://www.w3.org/2000/svg">
<path d="M32.9972 19H0.9C0.679086 19 0.499186 19.1804 0.508102 19.4011C0.802964 26.7012 9.07162 32.1726 13 32.5H20C28.0966 32.1144 32.1982 23.9557 33.3794 19.4863C33.4452 19.2376 33.2544 19 32.9972 19Z" fill="#AAAAAA"/>
<path d="M28.5 15H5.5L6 13C4.83333 12.3333 2.3 10.9 1.5 10.5C0.5 10 0.5 8.5 1 7.5C1.4 6.7 3.16667 6.83333 4 7L8.5 10H10V8.5L5.5 4C4.5 3 5 2.5 5.5 1.5C5.9 0.699996 7.33333 0.83333 8 0.999996C10.1667 3.5 14.5 8.4 14.5 8C14.5 7.6 15.1667 7.16666 15.5 7H19C22.6 7 26.8333 12.3333 28.5 15Z" fill="#AAAAAA"/>
</svg>
