<svg width="30" height="35" viewBox="0 0 30 35" fill="none" xmlns="http://www.w3.org/2000/svg">
<path d="M15 24C10.1667 24.3452 6.47563 22.9772 4.69828 21.9531C4.27952 21.7119 4.1571 21.1858 4.37323 20.7535L7.5885 14.323C7.82109 13.8578 8.37954 13.6553 8.89947 13.6681C9.90419 13.6929 11.3274 13.2589 12.5 11.5C13.7578 9.61328 13.038 8.01497 12.1868 7.09372C11.8366 6.71482 11.6869 6.15292 11.9315 5.69868L14.0761 1.71578C14.4622 0.998697 15.4978 1.01922 15.8552 1.75104L25.0887 20.6579C25.3201 21.1315 25.1434 21.7005 24.6593 21.9091C22.9746 22.6351 19.6235 23.6698 15 24Z" fill="#AAAAAA"/>
<path d="M14.5 28C8.88348 28 5.3359 26.783 3.57245 25.773C2.99594 25.4428 2.17882 25.5781 1.85617 26.1589L0.384784 28.8074C0.159353 29.2132 0.241209 29.7233 0.611704 30.0029C2.91053 31.7381 8.24605 34.3627 15.5 34C22.6112 33.6444 27.352 31.4189 29.3711 29.9923C29.7537 29.722 29.8382 29.2088 29.6108 28.7994L28.0569 26.0023C27.7624 25.4723 27.0617 25.3153 26.5241 25.5957C24.533 26.6343 20.4497 28 14.5 28Z" fill="#AAAAAA"/>
<rect x="15" y="16" width="4" height="4" rx="2" fill="white"/>
</svg>
