<svg width="34" height="30" viewBox="0 0 34 30" fill="none" xmlns="http://www.w3.org/2000/svg">
<path d="M16.5 12C3.70002 13.2 0.833351 24.5 1.00002 30H33C32.8333 23.5 29.3 10.8 16.5 12Z" fill="#AAAAAA"/>
<path d="M31.457 14.4598C19.0755 2.91141 8.4948 7.83873 4 12.5C3.49999 13.1667 2.29997 14.2 1.49998 13C0.299984 11.4 0.999984 9.66667 1.49998 9C2.89811 7.29118 6.29442 4.25024 9.34058 4.81678C9.71483 4.88639 10.11 4.71582 10.2892 4.37996C11.504 2.10286 14.3314 0 18 0C22 0 24 5 25 5.00001C29.7489 4.60427 32.2791 7.76492 32.9781 9.44626C32.9932 9.48278 33.004 9.51848 33.0121 9.55718C33.5028 11.8855 33.8752 16.0275 31.5505 14.5331C31.5182 14.5123 31.485 14.486 31.457 14.4598Z" fill="#AAAAAA"/>
<rect x="9" y="18" width="4" height="4" rx="2" fill="white"/>
<rect x="19" y="18" width="4" height="4" rx="2" fill="white"/>
<rect x="15" y="24" width="4" height="4" rx="2" fill="white"/>
</svg>
