<svg width="32" height="33" viewBox="0 0 32 33" fill="none" xmlns="http://www.w3.org/2000/svg">
<path d="M31 24L30 23H2L1 24H0V26H1C1 26.3333 1.2 27 2 27C2.8 31 5.33333 32.6667 6.5 33H25C27.8 33 29.5 29.1667 30 27C31 27 31 26 31 26H32V24H31Z" fill="#AAAAAA"/>
<path d="M13.8813 6.82188L12.0672 4.10077C12.0234 4.03506 12 3.95786 12 3.87889V1.4C12 1.17909 12.1791 1 12.4 1H13.2942C13.4233 1 13.5446 1.06239 13.6196 1.1675L15.9255 4.39569C15.974 4.46353 16 4.54482 16 4.62819V6.6C16 6.82091 15.8209 7 15.6 7H14.2141C14.0803 7 13.9554 6.93316 13.8813 6.82188Z" fill="#AAAAAA"/>
<path d="M16.2669 12.4649C17.1988 11.2278 20.07 10.383 21.7446 10.0488C21.9003 10.0177 22.0231 9.90194 22.0612 9.74783C22.9401 6.18914 25.1565 -0.171759 27.5 1.00001C29.9 2.20001 29.5 4.16668 29 5.00001L25.5236 10.463C25.5079 10.4876 25.4894 10.5101 25.4701 10.5319C25.3291 10.6913 25.1069 11.0628 25.0285 11.6012C24.9967 11.8198 25.1813 11.9966 25.3998 12.029C28.2071 12.4451 28.9683 17.2403 28.999 19.836C29.0003 19.9421 28.9589 20.0429 28.8797 20.1135C28.341 20.5932 27.3704 21.1112 27 20C26.2 16 24.3333 15 23.5 15H19.1114C19.0389 15 18.9655 15.0204 18.9039 15.0586C16.5129 16.539 17 18.013 17 19C17 19.8 16.3333 20 16 20H14C13.2 20 13 19.3333 13 19V15.3279C13 15.1373 12.8663 14.9728 12.6779 14.9434C11.6911 14.7896 9.77957 14.6441 8 15C6.21555 15.3569 5.09449 17.9958 4.63681 19.5075C4.56141 19.7566 4.41765 20 4.15742 20H3.5C2.3 20 2 19.3333 2 19V17.0344C2 17.0123 2.00189 16.9885 2.00561 16.9668C2.82246 12.1945 7.67206 11 10 11H11C13.2864 11 13.9 11.4182 15.518 12.6371C15.7465 12.8092 16.0948 12.6934 16.2669 12.4649Z" fill="#AAAAAA"/>
</svg>
