<svg width="33" height="32" viewBox="0 0 33 32" fill="none" xmlns="http://www.w3.org/2000/svg">
<path d="M3.99999 14V19.5343C3.99999 19.8907 4.50434 20.1669 4.813 19.9888C6.5665 18.977 10.7534 16.7528 13.9632 15.0665C14.3603 14.8579 14.7446 15.3563 14.4393 15.6849C10.1338 20.3185 3.41346 27.4399 2 28.5C5.96046e-06 30 1.5 31 2 31.5C2.38074 31.8807 3.39567 31.6877 3.92373 31.5245C3.97448 31.5088 4.02058 31.482 4.06056 31.447L7.88689 28.099C7.95981 28.0352 8.0534 28 8.15029 28H8.46282C8.48755 28 8.51105 28.0021 8.53536 28.0066C11.2205 28.507 17.3141 29.2965 20.5 28.5C24.4677 27.5081 34.3387 16.1853 31.5702 0.387172C31.5328 0.173563 31.3222 0.0285153 31.1082 0.0636266C9.03849 3.68459 3.8343 10.8519 3.99999 14Z" fill="#00A45B"/>
</svg>
