<svg width="32" height="32" viewBox="0 0 32 32" fill="none" xmlns="http://www.w3.org/2000/svg">
<path d="M0 8.5V23C0 25.5 4.5 32 17 32C27 32 31.1667 26 32 23V8.5C30.6667 5.66667 25.5 0 15.5 0C5.5 0 1 5.66667 0 8.5Z" fill="#AAAAAA"/>
<path d="M25.8 9.5C25.8 10.1045 25.3155 11.1445 23.4375 12.1618C21.646 13.1321 19.0205 13.8 16 13.8C12.9795 13.8 10.354 13.1321 8.56254 12.1618C6.6845 11.1445 6.2 10.1045 6.2 9.5C6.2 8.89546 6.6845 7.85552 8.56254 6.83825C10.354 5.8679 12.9795 5.2 16 5.2C19.0205 5.2 21.646 5.8679 23.4375 6.83825C25.3155 7.85552 25.8 8.89546 25.8 9.5Z" stroke="white" stroke-width="4.4"/>
</svg>
